<svg height="512pt" viewBox="0 -105 512 512" width="512pt" xmlns="http://www.w3.org/2000/svg"><path d="m471.109375 241h-430.21875l45.6875-241h338.847656zm0 0" fill="#ffe441"/><path d="m425.421875 0h-169.421875v241h215.109375zm0 0" fill="#ffcb00"/><path d="m512 301h-512v-90h512zm0 0" fill="#004fc4"/><g fill="#003480"><path d="m241 60h30v30h-30zm0 0"/><path d="m211 90h30v30h-30zm0 0"/><path d="m181 60h30v30h-30zm0 0"/><path d="m151 90h30v30h-30zm0 0"/></g><path d="m151 150h210v30h-210zm0 0" fill="#ffcb00"/><path d="m512 301h-256v-90h256zm0 0" fill="#003480"/><path d="m256 150h105v30h-105zm0 0" fill="#ff9f00"/><path d="m271 90h30v30h-30zm0 0" fill="#00163b"/><path d="m301 60h30v30h-30zm0 0" fill="#00163b"/><path d="m331 90h30v30h-30zm0 0" fill="#00163b"/><path d="m256 60h15v30h-15zm0 0" fill="#00163b"/></svg>